<svg xmlns="http://www.w3.org/2000/svg" viewBox="0 0 1024 1024" role="img" aria-label="Bodyboard wave icon">
  <rect width="1024" height="1024" fill="#fff"/>
  <defs>
    <clipPath id="badgeClip">
      <circle cx="512" cy="512" r="420"/>
    </clipPath>
  </defs>
  <g clip-path="url(#badgeClip)">
    <path fill="#000" d="M75 650c96-16 156-61 181-134 26-73-5-146-77-183 74-65 208-83 316-42 71 27 116 72 139 134 102-5 211 22 316 80v418H75V650Z"/>
    <path fill="#fff" d="M77 649c71-11 125-36 161-74 36-39 50-84 41-136-8-47-34-82-79-106 70-18 139-7 197 31 58 39 92 95 101 169-47 9-95 28-144 58-54 34-99 73-135 118-43-29-90-49-142-60Z"/>
    <path fill="#000" d="M296 733c45-64 100-115 164-154 67-40 137-62 210-67 78-6 173 15 284 62v348H242c4-68 22-131 54-189Z"/>
    <g transform="translate(728 256) rotate(28)">
      <rect x="-102" y="0" width="224" height="520" rx="38" fill="#fff" stroke="#000" stroke-width="28"/>
    </g>
    <path fill="#fff" stroke="#000" stroke-width="24" stroke-linejoin="round" d="m289 779 79 41-48 102-116-76c20-27 48-50 85-67Z"/>
    <path fill="#fff" stroke="#000" stroke-width="24" stroke-linejoin="round" d="m444 836 83 35-42 112-122-69c18-32 45-58 81-78Z"/>
    <circle cx="336" cy="755" r="34" fill="#fff"/>
    <circle cx="494" cy="816" r="34" fill="#fff"/>
  </g>
  <circle cx="512" cy="512" r="445" fill="none" stroke="#000" stroke-width="42"/>
</svg>